<svg xmlns="http://www.w3.org/2000/svg" viewBox="288.29 304.29 385.32 404.93" fill="none">
  <title>Space Cadet icon logo</title>
  <g fill="currentColor">
    <path d="M517.27,453.45c-38.81,37.45-79.18,74.1-121.79,107.52-5.16,3.52-68.4,55.82-63.8,39.33,14.69-29.03,40.74-50.11,62.89-73.32,21.01-18.94,52.99-46.68,70.97-58.44-60.47,35.94-271.37,186-119.08,231.14,96.07,20.13,194.23-17.54,276.29-65.91.78-.46,1.38-.91,1.58-1.03-8.34,4.1-17.81,8.98-26.9,12.37-43.86,21.62-247.25,85.43-185.94-26.67,24.91-41.35,60.44-74.52,91.23-111.14,10.45-12.69,22.62-24.92,30.99-38.91.06-2.06-1.97-3.27-3.44-4.4-4.28-3.31-7.91-8.38-12.88-10.56h-.12Z"/>
    <path d="M657.6,308.82c-38.16,5.68-69,32.3-94.09,59.98-2.26,3.13-5.67,5.51-7.84,8.78-3.19,3.39-5.11,8.91-10.71,8.35-11.98,1.12-24.28,2.31-34.93,8.55-10.26,6.87-20.23,15.75-27.45,25.79-.11.43.25.68.99.78,2.95.41,6.13-.48,9.09-.87,11.12.22,23.53-1.7,33.56,3.99,1.73,2.61-3.73,7.31-3.63,10.02.03.84.5,1.44,1.18,2.13,4.85,4,9.91,7.81,14.35,12.31,5.21,3.58,9.41,9.12,15.1,11.85,10.52-3.56,10.46-10.33,14.41,5.48,2.1,8.98,2.57,18.15,2.31,27.38.25,9.72,5.49-1.2,8.51-3.34,18.01-21.47,22.2-25.56,20.67-54.4-.1-3.05.02-5.75,2.28-7.67,25.23-20.46,47.01-46.28,60.29-76.13,5.29-13.08,9-27.52,7.63-41.69-.9-2.95-8.87-1.45-11.53-1.34l-.17.03Z"/>
  </g>
</svg>
