<svg xmlns="http://www.w3.org/2000/svg" viewBox="293 309 376 396" fill="none">
  <title>Space Cadet icon logo</title>
  <g fill="currentColor">
    <path d="M 517 453 L 516 454 L 515 455 L 514 456 L 513 457 L 512 458 L 511 459 L 510 460 L 509 461 L 508 462 L 507 463 L 506 464 L 505 465 L 504 466 L 503 467 L 502 468 L 501 469 L 500 470 L 499 471 L 498 472 L 497 473 L 496 474 L 495 475 L 494 476 L 493 477 L 492 478 L 491 479 L 490 480 L 489 481 L 488 482 L 487 483 L 486 484 L 485 485 L 484 486 L 483 487 L 482 488 L 481 489 L 480 489 L 479 490 L 478 491 L 477 492 L 476 493 L 475 494 L 474 495 L 473 496 L 472 496 L 471 497 L 470 498 L 469 499 L 468 500 L 467 501 L 466 502 L 465 503 L 464 504 L 463 505 L 462 505 L 461 506 L 460 507 L 459 508 L 458 509 L 457 510 L 456 511 L 455 512 L 454 512 L 453 513 L 452 514 L 451 515 L 450 516 L 449 517 L 448 518 L 447 519 L 446 519 L 445 520 L 444 521 L 443 522 L 442 523 L 441 523 L 440 524 L 439 525 L 438 526 L 437 527 L 436 528 L 435 529 L 434 530 L 433 530 L 432 531 L 431 532 L 430 533 L 429 534 L 428 535 L 427 535 L 426 536 L 425 537 L 424 538 L 423 539 L 422 540 L 421 540 L 420 541 L 419 542 L 418 543 L 417 544 L 416 545 L 415 545 L 414 546 L 413 547 L 412 548 L 411 549 L 410 550 L 409 550 L 408 551 L 407 552 L 406 553 L 405 554 L 404 555 L 403 555 L 402 556 L 401 557 L 400 558 L 399 558 L 398 559 L 397 560 L 396 561 L 395 562 L 394 562 L 393 563 L 392 564 L 391 565 L 390 566 L 389 567 L 388 567 L 387 568 L 386 569 L 385 569 L 384 570 L 383 571 L 382 572 L 381 573 L 380 573 L 379 574 L 378 575 L 377 576 L 376 576 L 375 577 L 374 578 L 373 579 L 372 579 L 371 580 L 370 581 L 369 582 L 368 582 L 367 583 L 366 584 L 365 585 L 364 585 L 363 586 L 362 587 L 361 587 L 360 588 L 359 589 L 358 590 L 357 590 L 356 591 L 355 592 L 354 592 L 353 593 L 352 594 L 351 594 L 350 595 L 349 596 L 348 596 L 347 597 L 346 597 L 345 598 L 344 599 L 343 599 L 342 600 L 341 601 L 340 601 L 339 602 L 338 602 L 337 603 L 336 603 L 335 604 L 334 604 L 333 604 L 332 605 L 331 604 L 331 603 L 331 602 L 332 601 L 332 600 L 333 599 L 333 598 L 334 597 L 334 596 L 335 595 L 335 594 L 336 593 L 336 592 L 337 591 L 338 590 L 338 589 L 339 588 L 340 587 L 340 586 L 341 585 L 342 584 L 343 583 L 343 582 L 344 581 L 345 580 L 346 579 L 347 578 L 347 577 L 348 576 L 349 575 L 350 574 L 351 573 L 352 572 L 352 571 L 353 570 L 354 569 L 355 568 L 356 567 L 357 566 L 358 565 L 359 564 L 360 563 L 361 562 L 361 561 L 362 560 L 363 559 L 364 558 L 365 557 L 366 556 L 367 555 L 368 554 L 369 553 L 370 552 L 371 551 L 372 550 L 373 549 L 374 548 L 375 547 L 376 546 L 377 545 L 378 544 L 379 543 L 380 542 L 381 541 L 382 540 L 383 539 L 384 538 L 385 537 L 386 536 L 387 535 L 388 534 L 389 533 L 390 532 L 391 531 L 392 530 L 393 529 L 394 528 L 395 527 L 396 526 L 397 525 L 398 525 L 399 524 L 400 523 L 401 522 L 402 521 L 403 520 L 404 519 L 405 518 L 406 517 L 407 516 L 408 515 L 409 515 L 410 514 L 411 513 L 412 512 L 413 511 L 414 510 L 415 509 L 416 508 L 417 507 L 418 506 L 419 506 L 420 505 L 421 504 L 422 503 L 423 502 L 424 502 L 425 501 L 426 500 L 427 499 L 428 498 L 429 497 L 430 497 L 431 496 L 432 495 L 433 494 L 434 493 L 435 492 L 436 491 L 437 491 L 438 490 L 439 489 L 440 488 L 441 487 L 442 487 L 443 486 L 444 485 L 445 484 L 446 484 L 447 483 L 448 482 L 449 481 L 450 480 L 451 480 L 452 479 L 453 478 L 454 477 L 455 476 L 456 476 L 457 475 L 458 474 L 459 473 L 460 473 L 461 472 L 462 471 L 463 471 L 464 470 L 465 469 L 466 469 L 467 468 L 468 467 L 467 468 L 466 469 L 465 469 L 464 470 L 463 471 L 462 471 L 461 472 L 460 472 L 459 473 L 458 474 L 457 474 L 456 475 L 455 475 L 454 476 L 453 477 L 452 477 L 451 478 L 450 479 L 449 479 L 448 480 L 447 481 L 446 481 L 445 482 L 444 483 L 443 483 L 442 484 L 441 485 L 440 485 L 439 486 L 438 487 L 437 487 L 436 488 L 435 489 L 434 489 L 433 490 L 432 491 L 431 491 L 430 492 L 429 493 L 428 494 L 427 494 L 426 495 L 425 496 L 424 496 L 423 497 L 422 498 L 421 499 L 420 499 L 419 500 L 418 501 L 417 501 L 416 502 L 415 503 L 414 503 L 413 504 L 412 505 L 411 505 L 410 506 L 409 507 L 408 508 L 407 509 L 406 509 L 405 510 L 404 511 L 403 512 L 402 512 L 401 513 L 400 514 L 399 515 L 398 516 L 397 516 L 396 517 L 395 518 L 394 519 L 393 519 L 392 520 L 391 521 L 390 522 L 389 523 L 388 523 L 387 524 L 386 525 L 385 526 L 384 526 L 383 527 L 382 528 L 381 529 L 380 530 L 379 530 L 378 531 L 377 532 L 376 533 L 375 534 L 374 535 L 373 535 L 372 536 L 371 537 L 370 538 L 369 539 L 368 540 L 367 541 L 366 542 L 365 542 L 364 543 L 363 544 L 362 545 L 361 546 L 360 547 L 359 548 L 358 549 L 357 550 L 356 551 L 355 551 L 354 552 L 353 553 L 352 554 L 351 555 L 350 556 L 349 557 L 348 558 L 347 559 L 346 560 L 345 561 L 344 562 L 343 563 L 342 564 L 341 565 L 340 566 L 339 567 L 338 568 L 337 569 L 336 570 L 335 571 L 335 572 L 334 573 L 333 574 L 332 575 L 331 576 L 330 577 L 329 578 L 328 579 L 327 580 L 327 581 L 326 582 L 325 583 L 324 584 L 323 585 L 322 586 L 322 587 L 321 588 L 320 589 L 319 590 L 318 591 L 318 592 L 317 593 L 316 594 L 316 595 L 315 596 L 314 597 L 313 598 L 313 599 L 312 600 L 311 601 L 311 602 L 310 603 L 309 604 L 309 605 L 308 606 L 307 607 L 307 608 L 306 609 L 306 610 L 305 611 L 304 612 L 304 613 L 303 614 L 303 615 L 302 616 L 302 617 L 301 618 L 301 619 L 300 620 L 300 621 L 299 622 L 299 623 L 299 624 L 298 625 L 298 626 L 297 627 L 297 628 L 297 629 L 296 630 L 296 631 L 296 632 L 296 633 L 295 634 L 295 635 L 295 636 L 295 637 L 294 638 L 294 639 L 294 640 L 294 641 L 294 642 L 294 643 L 294 644 L 293 645 L 293 646 L 293 647 L 293 648 L 293 649 L 293 650 L 293 651 L 293 652 L 293 653 L 293 654 L 294 655 L 294 656 L 294 657 L 294 658 L 294 659 L 295 660 L 295 661 L 295 662 L 295 663 L 296 664 L 296 665 L 297 666 L 297 667 L 298 668 L 298 669 L 299 670 L 299 671 L 300 672 L 301 673 L 302 674 L 302 675 L 303 676 L 304 677 L 305 678 L 306 679 L 307 679 L 308 680 L 309 681 L 310 682 L 311 683 L 312 684 L 313 684 L 314 685 L 315 686 L 316 687 L 317 687 L 318 688 L 319 688 L 320 689 L 321 690 L 322 690 L 323 691 L 324 691 L 325 692 L 326 692 L 327 692 L 328 693 L 329 693 L 330 694 L 331 694 L 332 695 L 333 695 L 334 695 L 335 696 L 336 696 L 337 696 L 338 697 L 339 697 L 340 697 L 341 698 L 342 698 L 343 698 L 344 698 L 345 699 L 346 699 L 347 699 L 348 700 L 349 700 L 350 700 L 351 700 L 352 700 L 353 701 L 354 701 L 355 701 L 356 701 L 357 701 L 358 702 L 359 702 L 360 702 L 361 702 L 362 702 L 363 702 L 364 703 L 365 703 L 366 703 L 367 703 L 368 703 L 369 703 L 370 703 L 371 703 L 372 703 L 373 703 L 374 704 L 375 704 L 376 704 L 377 704 L 378 704 L 379 704 L 380 704 L 381 704 L 382 704 L 383 704 L 384 704 L 385 704 L 386 704 L 387 704 L 388 705 L 389 705 L 390 705 L 391 705 L 392 705 L 393 705 L 394 705 L 395 705 L 396 705 L 397 705 L 398 705 L 399 705 L 400 705 L 401 705 L 402 705 L 403 705 L 404 705 L 405 705 L 406 705 L 407 705 L 408 705 L 409 705 L 410 705 L 411 705 L 412 705 L 413 705 L 414 705 L 415 704 L 416 704 L 417 704 L 418 704 L 419 704 L 420 704 L 421 704 L 422 704 L 423 704 L 424 704 L 425 704 L 426 704 L 427 704 L 428 704 L 429 704 L 430 703 L 431 703 L 432 703 L 433 703 L 434 703 L 435 703 L 436 703 L 437 702 L 438 702 L 439 702 L 440 702 L 441 702 L 442 702 L 443 702 L 444 702 L 445 701 L 446 701 L 447 701 L 448 701 L 449 701 L 450 701 L 451 700 L 452 700 L 453 700 L 454 700 L 455 700 L 456 699 L 457 699 L 458 699 L 459 699 L 460 699 L 461 699 L 462 698 L 463 698 L 464 698 L 465 698 L 466 697 L 467 697 L 468 697 L 469 697 L 470 697 L 471 696 L 472 696 L 473 696 L 474 696 L 475 695 L 476 695 L 477 695 L 478 695 L 479 694 L 480 694 L 481 694 L 482 694 L 483 694 L 484 693 L 485 693 L 486 693 L 487 693 L 488 692 L 489 692 L 490 692 L 491 691 L 492 691 L 493 691 L 494 691 L 495 690 L 496 690 L 497 690 L 498 689 L 499 689 L 500 689 L 501 688 L 502 688 L 503 688 L 504 688 L 505 687 L 506 687 L 507 687 L 508 686 L 509 686 L 510 686 L 511 685 L 512 685 L 513 685 L 514 684 L 515 684 L 516 684 L 517 683 L 518 683 L 519 682 L 520 682 L 521 682 L 522 681 L 523 681 L 524 681 L 525 680 L 526 680 L 527 680 L 528 679 L 529 679 L 530 679 L 531 678 L 532 678 L 533 678 L 534 677 L 535 677 L 536 677 L 537 676 L 538 676 L 539 675 L 540 675 L 541 675 L 542 674 L 543 674 L 544 673 L 545 673 L 546 672 L 547 672 L 548 672 L 549 671 L 550 671 L 551 670 L 552 670 L 553 669 L 554 669 L 555 668 L 556 668 L 557 668 L 558 667 L 559 667 L 560 666 L 561 666 L 562 665 L 563 665 L 564 664 L 565 664 L 566 664 L 567 663 L 568 663 L 569 662 L 570 662 L 571 661 L 572 661 L 573 660 L 574 660 L 575 659 L 576 659 L 577 658 L 578 658 L 579 657 L 580 657 L 581 656 L 582 656 L 583 655 L 584 655 L 585 654 L 586 654 L 587 653 L 588 653 L 589 652 L 590 652 L 591 651 L 592 651 L 593 650 L 594 649 L 595 649 L 596 648 L 597 648 L 598 647 L 599 647 L 600 646 L 601 646 L 602 645 L 603 644 L 604 644 L 605 643 L 606 643 L 607 642 L 608 642 L 609 641 L 610 641 L 611 640 L 612 639 L 613 639 L 614 638 L 615 638 L 616 637 L 617 636 L 618 636 L 619 635 L 620 635 L 621 634 L 622 634 L 623 633 L 624 632 L 625 632 L 624 632 L 623 633 L 622 634 L 621 634 L 620 634 L 619 635 L 618 635 L 617 636 L 616 636 L 615 637 L 614 637 L 613 638 L 612 638 L 611 639 L 610 639 L 609 640 L 608 640 L 607 641 L 606 641 L 605 642 L 604 642 L 603 642 L 602 643 L 601 643 L 600 644 L 599 644 L 598 644 L 597 645 L 596 645 L 595 646 L 594 646 L 593 647 L 592 647 L 591 648 L 590 648 L 589 648 L 588 649 L 587 649 L 586 650 L 585 650 L 584 650 L 583 651 L 582 651 L 581 652 L 580 652 L 579 652 L 578 653 L 577 653 L 576 653 L 575 654 L 574 654 L 573 655 L 572 655 L 571 655 L 570 656 L 569 656 L 568 657 L 567 657 L 566 657 L 565 658 L 564 658 L 563 658 L 562 659 L 561 659 L 560 659 L 559 660 L 558 660 L 557 660 L 556 661 L 555 661 L 554 661 L 553 662 L 552 662 L 551 662 L 550 663 L 549 663 L 548 663 L 547 664 L 546 664 L 545 664 L 544 665 L 543 665 L 542 665 L 541 666 L 540 666 L 539 666 L 538 667 L 537 667 L 536 667 L 535 667 L 534 668 L 533 668 L 532 668 L 531 669 L 530 669 L 529 669 L 528 669 L 527 670 L 526 670 L 525 670 L 524 671 L 523 671 L 522 671 L 521 671 L 520 672 L 519 672 L 518 672 L 517 672 L 516 672 L 515 673 L 514 673 L 513 673 L 512 673 L 511 674 L 510 674 L 509 674 L 508 674 L 507 675 L 506 675 L 505 675 L 504 675 L 503 676 L 502 676 L 501 676 L 500 676 L 499 676 L 498 677 L 497 677 L 496 677 L 495 677 L 494 677 L 493 678 L 492 678 L 491 678 L 490 678 L 489 678 L 488 678 L 487 679 L 486 679 L 485 679 L 484 679 L 483 679 L 482 679 L 481 680 L 480 680 L 479 680 L 478 680 L 477 680 L 476 680 L 475 680 L 474 681 L 473 681 L 472 681 L 471 681 L 470 681 L 469 681 L 468 681 L 467 681 L 466 681 L 465 681 L 464 682 L 463 682 L 462 682 L 461 682 L 460 682 L 459 682 L 458 682 L 457 682 L 456 682 L 455 682 L 454 682 L 453 682 L 452 682 L 451 682 L 450 682 L 449 682 L 448 682 L 447 682 L 446 682 L 445 682 L 444 682 L 443 682 L 442 682 L 441 682 L 440 682 L 439 682 L 438 682 L 437 682 L 436 682 L 435 682 L 434 681 L 433 681 L 432 681 L 431 681 L 430 681 L 429 681 L 428 681 L 427 680 L 426 680 L 425 680 L 424 680 L 423 679 L 422 679 L 421 679 L 420 679 L 419 678 L 418 678 L 417 677 L 416 677 L 415 676 L 414 676 L 413 675 L 412 675 L 411 674 L 410 674 L 409 673 L 408 672 L 407 671 L 406 670 L 405 669 L 404 668 L 403 667 L 403 666 L 402 665 L 402 664 L 401 663 L 401 662 L 400 661 L 400 660 L 400 659 L 400 658 L 400 657 L 399 656 L 399 655 L 399 654 L 399 653 L 399 652 L 400 651 L 400 650 L 400 649 L 400 648 L 400 647 L 400 646 L 400 645 L 401 644 L 401 643 L 401 642 L 401 641 L 402 640 L 402 639 L 402 638 L 403 637 L 403 636 L 404 635 L 404 634 L 404 633 L 405 632 L 405 631 L 406 630 L 406 629 L 407 628 L 407 627 L 408 626 L 408 625 L 409 624 L 409 623 L 410 622 L 410 621 L 411 620 L 411 619 L 412 618 L 412 617 L 413 616 L 414 615 L 414 614 L 415 613 L 415 612 L 416 611 L 417 610 L 417 609 L 418 608 L 419 607 L 419 606 L 420 605 L 421 604 L 421 603 L 422 602 L 423 601 L 424 600 L 424 599 L 425 598 L 426 597 L 427 596 L 427 595 L 428 594 L 429 593 L 430 592 L 430 591 L 431 590 L 432 589 L 433 588 L 433 587 L 434 586 L 435 585 L 436 584 L 437 583 L 437 582 L 438 581 L 439 580 L 440 579 L 441 578 L 442 577 L 442 576 L 443 575 L 444 574 L 445 573 L 446 572 L 446 571 L 447 570 L 448 569 L 449 568 L 450 567 L 451 566 L 452 565 L 452 564 L 453 563 L 454 562 L 455 561 L 456 560 L 457 559 L 458 558 L 459 557 L 459 556 L 460 555 L 461 554 L 462 553 L 463 552 L 464 551 L 465 550 L 466 549 L 467 548 L 468 547 L 468 546 L 469 545 L 470 544 L 471 543 L 472 542 L 473 541 L 474 540 L 475 539 L 476 538 L 476 537 L 477 536 L 478 535 L 479 534 L 480 533 L 481 532 L 482 531 L 483 530 L 484 529 L 485 528 L 486 527 L 486 526 L 487 525 L 488 524 L 489 523 L 490 522 L 491 521 L 492 520 L 493 519 L 494 518 L 494 517 L 495 516 L 496 515 L 497 514 L 498 513 L 499 512 L 500 511 L 501 510 L 501 509 L 502 508 L 503 507 L 504 506 L 505 505 L 506 504 L 507 503 L 507 502 L 508 501 L 509 500 L 510 499 L 511 498 L 512 497 L 512 496 L 513 495 L 514 494 L 515 493 L 516 492 L 517 491 L 517 490 L 518 489 L 519 488 L 520 487 L 521 486 L 522 485 L 522 484 L 523 483 L 524 482 L 525 481 L 526 480 L 526 479 L 527 478 L 528 477 L 529 476 L 529 475 L 530 474 L 531 473 L 532 472 L 533 471 L 533 470 L 534 469 L 534 468 L 533 467 L 532 466 L 531 465 L 530 465 L 529 464 L 528 463 L 527 462 L 526 461 L 525 460 L 524 459 L 523 458 L 522 457 L 521 457 L 520 456 L 519 455 L 518 454 Z"/><path d="M 657 309 L 656 310 L 655 310 L 654 310 L 653 310 L 652 310 L 651 311 L 650 311 L 649 311 L 648 311 L 647 311 L 646 312 L 645 312 L 644 312 L 643 312 L 642 313 L 641 313 L 640 313 L 639 314 L 638 314 L 637 314 L 636 315 L 635 315 L 634 315 L 633 316 L 632 316 L 631 317 L 630 317 L 629 318 L 628 318 L 627 318 L 626 319 L 625 319 L 624 320 L 623 320 L 622 321 L 621 321 L 620 322 L 619 323 L 618 323 L 617 324 L 616 324 L 615 325 L 614 325 L 613 326 L 612 327 L 611 327 L 610 328 L 609 329 L 608 329 L 607 330 L 606 331 L 605 331 L 604 332 L 603 333 L 602 334 L 601 334 L 600 335 L 599 336 L 598 337 L 597 338 L 596 338 L 595 339 L 594 340 L 593 341 L 592 342 L 591 342 L 590 343 L 589 344 L 588 345 L 587 346 L 586 347 L 585 347 L 584 348 L 583 349 L 582 350 L 581 351 L 580 352 L 579 353 L 578 354 L 577 355 L 576 356 L 575 357 L 574 358 L 573 359 L 572 360 L 571 361 L 570 362 L 569 363 L 568 364 L 567 365 L 566 366 L 565 367 L 564 368 L 564 369 L 563 370 L 562 371 L 561 372 L 560 373 L 559 374 L 558 375 L 557 376 L 556 377 L 556 378 L 555 379 L 554 380 L 553 381 L 552 382 L 552 383 L 551 384 L 550 385 L 549 386 L 548 386 L 547 386 L 546 386 L 545 386 L 544 386 L 543 386 L 542 386 L 541 387 L 540 387 L 539 387 L 538 387 L 537 387 L 536 387 L 535 387 L 534 387 L 533 387 L 532 387 L 531 387 L 530 388 L 529 388 L 528 388 L 527 388 L 526 389 L 525 389 L 524 389 L 523 389 L 522 390 L 521 390 L 520 390 L 519 391 L 518 391 L 517 391 L 516 392 L 515 392 L 514 393 L 513 393 L 512 394 L 511 394 L 510 395 L 509 395 L 508 396 L 507 397 L 506 397 L 505 398 L 504 399 L 503 400 L 502 401 L 501 402 L 500 403 L 499 403 L 498 404 L 497 405 L 496 406 L 495 407 L 494 408 L 493 409 L 492 410 L 491 411 L 490 412 L 489 413 L 488 414 L 487 415 L 486 416 L 485 417 L 485 418 L 484 419 L 483 420 L 482 421 L 483 421 L 484 421 L 485 421 L 486 421 L 487 421 L 488 421 L 489 421 L 490 421 L 491 420 L 492 420 L 493 420 L 494 420 L 495 420 L 496 420 L 497 420 L 498 420 L 499 420 L 500 420 L 501 420 L 502 420 L 503 420 L 504 420 L 505 420 L 506 420 L 507 420 L 508 420 L 509 420 L 510 420 L 511 420 L 512 420 L 513 420 L 514 420 L 515 420 L 516 421 L 517 421 L 518 421 L 519 421 L 520 421 L 521 422 L 522 422 L 523 422 L 524 423 L 525 423 L 526 423 L 527 424 L 528 425 L 527 426 L 526 427 L 526 428 L 525 429 L 525 430 L 524 431 L 524 432 L 523 433 L 522 434 L 523 435 L 524 436 L 525 437 L 526 438 L 527 438 L 528 439 L 529 440 L 530 441 L 531 442 L 532 443 L 533 443 L 534 444 L 535 445 L 536 446 L 537 447 L 538 448 L 539 449 L 540 450 L 541 450 L 542 451 L 543 452 L 544 453 L 545 454 L 546 455 L 547 456 L 548 456 L 549 457 L 550 458 L 551 459 L 552 460 L 553 460 L 554 461 L 555 460 L 556 459 L 557 459 L 558 458 L 559 457 L 560 457 L 561 456 L 562 456 L 563 455 L 564 455 L 565 456 L 565 457 L 565 458 L 566 459 L 566 460 L 567 461 L 567 462 L 567 463 L 567 464 L 568 465 L 568 466 L 568 467 L 568 468 L 568 469 L 569 470 L 569 471 L 569 472 L 569 473 L 569 474 L 569 475 L 569 476 L 570 477 L 570 478 L 570 479 L 570 480 L 570 481 L 570 482 L 570 483 L 570 484 L 570 485 L 570 486 L 570 487 L 570 488 L 570 489 L 570 490 L 570 491 L 570 492 L 570 493 L 570 494 L 570 495 L 570 496 L 571 497 L 571 498 L 572 497 L 573 496 L 574 495 L 574 494 L 575 493 L 576 492 L 577 491 L 578 490 L 579 489 L 580 488 L 580 487 L 581 486 L 582 485 L 583 484 L 584 483 L 585 482 L 585 481 L 586 480 L 587 479 L 588 478 L 589 477 L 589 476 L 590 475 L 591 474 L 592 473 L 592 472 L 593 471 L 594 470 L 594 469 L 595 468 L 595 467 L 596 466 L 596 465 L 597 464 L 597 463 L 597 462 L 598 461 L 598 460 L 598 459 L 599 458 L 599 457 L 599 456 L 599 455 L 599 454 L 599 453 L 599 452 L 599 451 L 599 450 L 599 449 L 599 448 L 599 447 L 599 446 L 599 445 L 599 444 L 599 443 L 599 442 L 599 441 L 599 440 L 599 439 L 599 438 L 599 437 L 599 436 L 599 435 L 599 434 L 599 433 L 599 432 L 599 431 L 599 430 L 600 429 L 601 428 L 602 427 L 603 426 L 604 426 L 605 425 L 606 424 L 607 423 L 608 422 L 609 421 L 610 420 L 611 420 L 612 419 L 613 418 L 614 417 L 615 416 L 616 415 L 617 414 L 618 413 L 619 412 L 620 411 L 621 410 L 622 409 L 623 408 L 624 407 L 625 406 L 625 405 L 626 404 L 627 403 L 628 402 L 629 401 L 630 400 L 631 399 L 632 398 L 632 397 L 633 396 L 634 395 L 635 394 L 636 393 L 637 392 L 637 391 L 638 390 L 639 389 L 640 388 L 641 387 L 641 386 L 642 385 L 643 384 L 644 383 L 644 382 L 645 381 L 646 380 L 646 379 L 647 378 L 648 377 L 648 376 L 649 375 L 650 374 L 650 373 L 651 372 L 652 371 L 652 370 L 653 369 L 653 368 L 654 367 L 654 366 L 655 365 L 655 364 L 656 363 L 656 362 L 657 361 L 657 360 L 658 359 L 658 358 L 659 357 L 660 356 L 660 355 L 660 354 L 661 353 L 661 352 L 662 351 L 662 350 L 662 349 L 663 348 L 663 347 L 664 346 L 664 345 L 664 344 L 665 343 L 665 342 L 665 341 L 665 340 L 666 339 L 666 338 L 666 337 L 666 336 L 667 335 L 667 334 L 667 333 L 667 332 L 667 331 L 668 330 L 668 329 L 668 328 L 668 327 L 668 326 L 669 325 L 669 324 L 669 323 L 669 322 L 669 321 L 669 320 L 669 319 L 669 318 L 669 317 L 669 316 L 669 315 L 669 314 L 669 313 L 669 312 L 669 311 L 669 310 L 669 309 L 668 309 L 667 309 L 666 309 L 665 309 L 664 309 L 663 309 L 662 309 L 661 309 L 660 309 L 659 309 L 658 309 Z"/>
  </g>
</svg>
